<svg width="1518" height="594" xmlns="http://www.w3.org/2000/svg" xmlns:xlink="http://www.w3.org/1999/xlink" xml:space="preserve" overflow="hidden"><g transform="translate(1042 -909)"><path d="M-210.023 1144.24C-208.387 1145.16-208.968 1159.6-209.533 1166.01-210.848 1173.82-218.216 1182.46-221.697 1190.76-222.623 1194.88-224.506 1199.5-224.697 1204.39-226.529 1211.9-224.303 1225.46-225.959 1234.09-224.167 1239.73-227.101 1249.68-228.179 1258.98-229.56 1266.43-228.504 1275.69-227.566 1278.95-226.519 1282.49-219.164 1301.26-212.183 1305.96-209.099 1309.53-210.634 1314.02-217.281 1316.96-218.849 1318.48-220.982 1318.48-222.856 1319.95-224.485 1318.2-226.366 1315.01-228.314 1313.91-231.201 1310.89-233.55 1304.09-236.281 1299.23-237.467 1294.18-239.531 1289.93-240.079 1288.84-241.434 1287.54-242.206 1281.37-242.801 1274.09-247.962 1249.81-240.14 1211.85-233.295 1193.35-233.458 1191.95-216.863 1147.12-211.596 1144.25-210.884 1144.04-210.46 1144.08-210.023 1144.24ZM4.91553 1097.93C9.45117 1097.78 12.323 1099.09 16.0487 1100.3 24.4052 1104.68 25.0017 1113.78 12.5518 1111.47 8.39783 1111.83 0.798584 1111.64-6.2627 1112.97-18.0067 1114.56-20.3691 1116.13-29.8312 1121.41-35.7327 1125.06-41.0057 1127.85-41.7165 1127.81-46.0906 1124.68-60.3434 1139.66-74.769 1146.86-76.6681 1148.53-77.3193 1148.52-79.7327 1150.19-85.6993 1155-95.0207 1157.1-98.1171 1165.05-103.873 1173.07-104.604 1178.78-102.739 1181.21-101.558 1182.08-100.053 1184.57-98.4856 1185.64-98.5449 1185.66-98.5922 1185.65-98.622 1185.65-98.297 1186.47-95.4125 1189.25-93.3882 1190.55-88.9615 1191.21-89.0885 1193.35-84.693 1193.91-79.6493 1196.08-75.9073 1196.06-71.3987 1195.93-70.6469 1195.81-69.5814 1195.72-68.1732 1195.52-61.7606 1195.11-57.8915 1196.86-49.3339 1197.49-27.0972 1199.07-14.0181 1200.52-7.7312 1202.99-4.28857 1206.05-0.452148 1206.42 3.0354 1211.93 6.39807 1217.83 1.94507 1219.33 1.62622 1222.79-2.1554 1227.23-5.36621 1230.23-7.39429 1233.01-12.4149 1238.76-16.7578 1243.14-17.4355 1243.23-18.2859 1244.17-21.691 1246.8-26.7124 1250.68-32.2108 1252.9-37.981 1262.22-46.9018 1268.19-48.9659 1271.33-51.9246 1272.81-55.9716 1276.94-65.6569 1283.24-130.512 1311.5-134.519 1302.88-143.693 1289.92-83.5041 1279.34-67.085 1262.83-48.1699 1248.48-19.1794 1218.33-19.4148 1216.25-20.6108 1211.89-41.5963 1211.66-71.318 1207.7-101.179 1206.13-107.854 1202.8-118.616 1192.37-122.712 1188.89-124.863 1186.18-126.96 1184.24-126.049 1178.09-127.508 1171.99-124.543 1166.14-120.388 1159.52-113.014 1154.56-109.446 1150.18-99.2504 1143.75-82.6539 1129.64-67.8563 1121.2-50.3359 1112.96-27.6055 1102.38-10.7521 1099.65-4.6886 1098.62 0.133667 1097.73 4.91553 1097.93ZM147.017 1090.35C149.825 1090.54 153.634 1092.45 157.326 1093.11 158.098 1097.03 149.545 1113.32 145.222 1116.26 142.626 1118.13 138.119 1123.25 136.539 1134.07 135.077 1137.53 134.013 1143 132.298 1146.4 130.742 1149.88 129.549 1154.01 128.527 1156.26 128.561 1157.28 127.517 1158.92 127.75 1159.89 131.623 1157.49 140.637 1158.9 144.819 1158.22 153.481 1154.99 167.839 1159.22 173.559 1155.39 179.531 1154.97 191.819 1154.09 204.189 1152.87 214.142 1152.14 228.623 1149.31 241.393 1148.99 247.763 1147.65 269.931 1146.31 282.989 1143.56 296.425 1144.05 310.761 1139.62 318.748 1138.78 326.048 1137.84 334.522 1137.17 340.638 1136.15 346.123 1135.79 350.836 1135.07 351.588 1134.4 349.88 1124.71 395.209 1130.83 427.484 1124.32 460.271 1121.63 461.1 1121.66 462.533 1129.3 462.947 1131.95 462.644 1136.11 462.421 1137.89 461.914 1142.34 457.138 1143.51 435.92 1147.74 429.457 1149.06 422.603 1151.82 417.65 1152.17 401.876 1157.34 354.905 1165.21 345.963 1163.47 341.927 1163.39 335.978 1164.19 334 1164.62 330.971 1165.69 330.054 1165.84 330.073 1164.14 329.475 1161.44 346.629 1152.85 352.642 1154.09 357.993 1153.38 368.988 1149.32 367.724 1148.31 366.908 1147.95 363.751 1147.93 359.12 1148.93 355.058 1149.69 346.368 1150.54 338.238 1152.59 331.428 1154.07 320.683 1155.06 315.602 1156.52 310.53 1158.05 300.031 1158.27 290.934 1159.98 281.971 1160.77 275.147 1162.53 273.254 1163.83 269.817 1166.81 262.278 1181.99 258.769 1190.74 256.994 1194.74 255.899 1200.45 253.8 1203.06 247.13 1217.93 238.033 1244.27 238.678 1256.48 237.312 1267.6 243.015 1284.48 247.423 1289.67 252.575 1301.3 267.831 1290.46 277.096 1282.34 280.011 1278.49 284.348 1273.53 286.413 1271.82 293.564 1265.28 307.119 1249.82 313.624 1241 332.987 1214.91 337.224 1211.36 345.02 1213.29 350.34 1213.88 350.539 1214.08 350.917 1219.19 350.763 1222.63 350.386 1226.84 349.03 1229.8 343.195 1241.99 347.469 1249.22 364.684 1269.49 368.479 1274.24 372.009 1278.67 372.711 1279.65 373.473 1282.71 386.964 1291.74 395.096 1294.81 413.968 1298.71 434.892 1299.07 452.893 1298.33 464.123 1295.14 469.179 1294.51 470.404 1296.23 470.735 1297 470.344 1298.17 469.648 1298.4 469.119 1299.39 467.403 1301.21 466.53 1302.88 465.253 1305.13 462.607 1307.27 460.481 1308.63 457.892 1309.33 453.311 1311.75 450.802 1313.45 441.262 1318.35 415.459 1318.24 402.114 1315.29 392.536 1314.04 385.203 1312.42 380.641 1308.31 376.648 1305.71 372.642 1303.65 372.106 1303.68 370.165 1301.55 357.893 1291.07 352.545 1284.2 349.185 1281.46 345.905 1272.77 341.223 1269.77 335.017 1262.57 329.723 1250.92 328.992 1246.88 328.97 1245.68 328.143 1244.97 327.561 1244.82 326.726 1244.81 325.945 1245.46 326.086 1246.26 327.463 1246.67 319.751 1255.35 304.926 1271.19 303.304 1276.16 296.971 1276.93 292.363 1284.72 289.72 1287.49 287.696 1290.61 287.614 1291.36 288.939 1295.18 279.859 1303.25 272.564 1305.88 260.182 1316.11 247.149 1308.46 236.209 1300.45 229.235 1294.85 220.794 1281.28 222.212 1267.78 220.89 1258.45 222.681 1239.01 224.334 1239.1 225.05 1238.92 225.532 1238.11 225.68 1236.5 226.1 1233.28 232.301 1214.71 234.219 1207.47 237.249 1199.57 242.415 1187.99 242.416 1182.22 243.225 1175.46 245.078 1169.91 243.621 1168.11 241.605 1164.23 248.571 1165.08 230.958 1167.07 223.412 1169.73 203.058 1172.73 182.081 1172.26 173.181 1177.55 159.091 1173.31 138.76 1175.91 134.673 1176.61 129.614 1178.22 126.332 1179.25 121.269 1181.6 120.11 1182.98 118.001 1192.4 118.586 1198.21 115.139 1209.56 112.098 1220.44 110.332 1228.96 107.379 1243.72 106.904 1249.95 103.959 1263.01 104.266 1281.31 105.439 1284.03 106.438 1285.19 108.213 1285.81 111.546 1284.98 118.492 1285.07 132.37 1274.96 138.117 1269.74 141.31 1265.68 146.468 1264.21 146.602 1267.08 147.001 1267 145.561 1270.32 142.88 1273.15 141.595 1276 138.641 1280.32 136.786 1282.4 133.367 1289.29 125.916 1296.32 121.133 1298.36 109.613 1305.87 94.2748 1300.04 91.2249 1290.25 92.7892 1284.26 87.4326 1262.45 92.1213 1243.93 92.1951 1232.17 97.0183 1213.2 99.3594 1202.94 101.554 1192 102.558 1183.17 104.454 1181 106.963 1178.67 104.565 1177.55 98.6517 1179.03 94.1122 1179.7 63.1964 1186.08 45.8569 1179.7 26.4407 1174.92 59.5573 1166.79 68.5532 1163.2 89.0255 1162.9 109.013 1161.24 110.279 1158.93 111.402 1158.46 112.537 1153.14 114.064 1148.05 115.312 1143.22 117.624 1138.63 118.134 1137.62 118.778 1136.9 119.701 1133.44 120.696 1131.09 123.279 1121.85 133.649 1093.32 135.487 1091.95 135.378 1090.72 142.242 1090.8 147.017 1090.35ZM-185.113 1035.6C-184.299 1036.04-183.729 1037.21-182.067 1037.99-177.746 1042.77-176.524 1049.37-180.808 1053.16-181.929 1054.73-182.835 1057.08-183.073 1059.25-183.521 1060.72-184.057 1063.32-185.47 1064.32-192.312 1070.58-195.789 1085.74-190.857 1097.47-189.521 1100.88-188.056 1104.67-188.048 1105.52-188.675 1106.93-186.763 1109.35-184.475 1110.81-181.983 1113.83-180.942 1115.64-181.229 1118.87-181.724 1122.95-182.018 1123.12-187.547 1122.87-192.59 1122.16-194.868 1121.19-198.682 1116.45-202.327 1112-204.775 1107.76-207.306 1096.24-212.811 1079.07-211.391 1074.62-208.674 1067.22-207.457 1064.51-206.375 1060.74-206.389 1059.53-205.719 1056.29-199.536 1043.59-196.239 1041.01-195.247 1040.34-192.575 1039.29-190.681 1039.34-188.834 1039.33-187.012 1038.53-186.571 1037.06-185.946 1035.99-185.729 1035.43-185.113 1035.6ZM-324.503 914.486C-323.511 914.282-322.877 914.782-322.039 915.501-320.957 916.339-318.987 917.648-317.4 917.31-315.607 917.292-313.669 917.822-312.177 918.98-310.693 920.095-311.39 920.274-315.246 919.669-319.071 918.868-321.242 919.252-322.991 921.462-324.341 922.843-327.617 924.007-329.145 924.15-330.772 924.165-333.186 924.953-334.564 926.264-335.961 927.554-338.945 929.421-342.908 929.215-356.33 931.245-381.754 936.28-385.158 940.174-387.814 937.433-406.66 951.045-423.364 953.807-442.508 959.122-460.152 965.003-463.761 967.849-467.241 968.949-474.767 973.777-480.458 974.478-494.044 979.392-514.181 987.716-517.082 989.736-516.721 990.592-522.077 993.562-528.074 994.692-532.823 996.408-537.654 998.461-538.187 999.222-538.821 999.506-541.275 1000.28-542.427 1000.33-543.373 1000.2-546.795 1001.34-549.009 1002.29-555.851 1005.67-575.604 1014.47-576.414 1014.46-576.821 1013-583.372 1019.09-589.173 1020.85-595.797 1024.34-601.68 1027.33-602.953 1027.22-603.686 1026.47-607.591 1028.96-611.885 1030.61-615.47 1031.9-624.417 1037.09-632.117 1040.25-640.005 1044.11-648.54 1047.11-652.07 1050.77-655.385 1054.09-660.878 1056.86-663.817 1057.76-663.883 1059.38-676.483 1063.61-683.216 1070.47-689.674 1077.36-695.665 1076.4-702.186 1083.92-710.086 1089.35-710.797 1091.12-704.354 1093.65-701.935 1094.73-698.013 1095.82-696.661 1095.94-694.761 1095.5-691.007 1096.69-686.792 1098.83-673.544 1104.56-658.212 1103.39-617.826 1117.36-609.953 1121.16-575.379 1121.49-557.475 1126.17-542.373 1127.53-519.747 1131.48-516.188 1133.12-514.781 1133.99-508.096 1134.8-503.69 1135.61-491.102 1137.99-475.1 1140.26-453.546 1145.01-444.437 1146.47-430.319 1150.32-419.534 1151.28-409.801 1152.78-401.312 1154.04-399.913 1155.03-398.786 1153.51-389.102 1157.07-381.925 1161.1-373.747 1164.53-362.754 1168.49-357.559 1169.57-354.092 1170.7-353.041 1172.13-349.012 1173.33-345.684 1177.49-342.054 1176.96-339.758 1183.51-337.804 1189.2-339.345 1193.88-340.01 1198.07-346.457 1211.23-360.66 1224.36-368.849 1230.77-373.636 1232.93-386.628 1240.87-394.72 1248.2-396.58 1249.77-401.859 1252.48-404.409 1253.76-408.485 1255.55-415.763 1258.52-420.839 1262.29-426.998 1266.32-433.488 1268.86-436.099 1270.54-439.117 1271.57-442.958 1273.5-445.642 1276.1-455.109 1283.21-476.084 1297-477.241 1296.96-477.782 1297.27-482.436 1299.34-488.561 1304.68-493.277 1308.22-501.159 1314.34-504.726 1315.25-508.397 1316.93-511.885 1320.24-515.304 1321.96-518.165 1323.2-522.721 1326.45-526.461 1328.37-529.812 1329.98-534.062 1332.32-535.415 1333.5-537.221 1334.53-542.154 1338.24-547.604 1340.77-550.027 1342.28-551.084 1341.79-552.812 1343.36-552.877 1343.8-552.731 1344.12-552.771 1344.52-554.398 1346.07-559.303 1346.12-561.701 1348.37-565.453 1350.71-566.32 1349.7-569.864 1351.85-572.774 1354.19-577.191 1354.71-583.296 1358.53-583.72 1358.99-584.884 1359.13-585.398 1359.53-585.614 1359.58-586.132 1359.41-586.332 1359.52-587.091 1359.89-587.736 1360.12-588.105 1360.37-595.534 1362.24-607.858 1369.95-616.803 1373.47-643.715 1383.01-665.312 1392.81-673.557 1397.18-684.929 1403.15-723.346 1416.83-726.96 1416.68-728.641 1415.77-735.457 1420.13-739.765 1421.5-744.764 1424.28-750.915 1426.16-752.571 1426.32-754.183 1425.74-759.807 1429.08-767.295 1430.48-773.345 1432.71-779.273 1434.68-780.272 1434.58-781.236 1434.49-784.902 1436.09-788.324 1437.77-795.95 1446.16-836.97 1455.68-869.526 1466.85-878.342 1469.44-886.729 1472.25-888.401 1473.19-900.088 1473.92-933.396 1482.09-956.762 1490.16-966.263 1493.11-972.611 1492.39-985.313 1494.95-993.905 1495.92-1003.58 1497.4-1005.77 1497.85-1012.59 1497.54-1032.51 1491.31-1035.23 1488.96-1036.11 1487.55-1037.89 1482.73-1037.33 1478.83-1037.65 1471.29-1037.31 1470.82-1028.91 1461.19-1018.86 1450.18-1012.45 1444.48-1011.22 1446.14-1010.75 1446.75-1011.29 1448.01-1012.72 1448.96-1013.58 1451.24-1016.27 1453.25-1017.04 1458.88-1020.01 1469.17-1017.85 1473.6-1009.73 1476.26-1004.91 1477.53-1003.23 1477.71-986.416 1475.89-976.769 1475.35-962.59 1472.06-954.557 1469.82-947.408 1468.92-934.558 1466.7-926.348 1463.59-910.12 1460.09-884.582 1450.38-868.662 1445.68-863.54 1443.3-858.465 1441.36-856.439 1440.88-853.992 1439.22-849.767 1438.04-845.641 1437.01-832.44 1432.8-812.617 1422.37-800.286 1420.84-794.475 1418.3-785.986 1415.96-778.68 1413.38-772.663 1411.13-765.14 1408.49-762.113 1407.7-759.071 1406.95-753.925 1405.34-752.013 1404.73-749.32 1403.94-744.426 1401.59-741.21 1401-737.943 1397.3-726.744 1396.1-718.174 1392.76-709.027 1388.94-700.523 1386.36-698.856 1386.54-698.125 1385.18-690.727 1381.88-682.753 1380.15-675.556 1377.06-667.76 1373.98-666.357 1373.75-663.564 1374.52-659.242 1371.23-651.569 1367.25-645.678 1364.39-637.246 1360-633.353 1358.74-629.412 1357.14-623.186 1355-618.971 1353.14-608.703 1348.4-594.777 1341.99-588.797 1340.57-587.393 1340.05-582.062 1337.43-578.044 1335.38-573.821 1333.15-569.584 1331.41-567.292 1330.2-565.527 1328.78-564.69 1329.26-563.118 1328.27-552.473 1319.47-549.026 1324.17-537.947 1315.39-533.47 1313.53-516.531 1301.17-504.022 1294.86-491.989 1287.27-480.623 1279.86-476.991 1277.87-442.373 1257.83-411.333 1236.03-402.197 1229.46-398.251 1225.47-383.802 1219.03-377.34 1211.57-371.175 1205.95-364.867 1197.98-367.294 1189.61-370.67 1183.53-384.709 1176.55-395.912 1172.13-396.694 1169.18-410.579 1166.57-421.766 1165.97-432.309 1162.53-452.53 1159.11-460.99 1157.15-469.974 1154.05-482.45 1152.14-490.05 1151.09-497.833 1149.85-505.599 1148.54-511.126 1147.17-516.684 1146.31-523.93 1145.28-529.297 1144.02-540.171 1143.47-577.683 1126.58-619.444 1129.73-629.908 1128.81-641.158 1126.51-644.162 1125.76-647.023 1124.48-650.822 1123.94-652.883 1124.19-655.359 1123.62-657.708 1122.94-660.286 1122.06-663.849 1120.44-666.734 1119.11-691.647 1113.63-698.984 1111.77-708.166 1108.88-712.246 1106.66-716.678 1104.58-720.593 1103.05-722.978 1102.88-727.389 1102.59-730.248 1099.67-729.723 1094.92-728.138 1090.63-722.943 1082.93-693.304 1062.03-687.393 1058.48-680.749 1053.41-678.6 1051.73-675.773 1048.76-639.376 1032.4-623.863 1021.85-611.978 1019.16-601.628 1009.79-588.67 1004.68-567.561 994.728-559.86 991.192-536.661 982.779-527.23 977.71-502.562 970.628-492.565 964.413-489.359 962.9-485.903 961.735-485.1 961.742-483.902 962.812-479.504 959.847-474.117 957.516-469.066 955.316-463.652 953.184-462.551 953.295-461.674 952.638-454.793 950.966-448.927 947.645-442.84 944.488-436.361 941.929-435.158 941.997-433.354 942.294-423.12 936.212-410.734 935.031-374.35 924.105-363.143 917.347-347.135 918.233-340.855 917.135-332.07 916.537-329.177 915.408-327.191 914.993-325.473 914.243-324.503 914.486Z" fill-rule="evenodd"/><path d="M-210.023 1144.24C-208.454 1145.12-207.164 1158.65-209.533 1166.01-211.033 1176.43-217.397 1182.15-221.697 1190.76-222.093 1194.56-224.529 1199.46-224.697 1204.39-227.129 1213.92-226.232 1227.1-225.959 1234.09-224.664 1239.25-228.467 1252.06-228.179 1258.98-228.49 1266.2-229.096 1274.92-227.566 1278.95-228.193 1282.45-218.045 1299.07-212.183 1305.96-209.603 1309.04-210.183 1313.74-217.281 1316.96-218.425 1317.6-220.895 1318.74-222.856 1319.95-224.3 1318.48-226.599 1314.63-228.314 1313.91-231.239 1310.18-236.164 1305.1-236.281 1299.23-237.729 1294.42-239.373 1289.6-240.079 1288.84-240.965 1287.64-241.754 1281.91-242.801 1274.09-242.974 1257.45-242.834 1211.81-233.295 1193.35-231.812 1192.62-217.16 1145.67-211.596 1144.25-210.912 1143.85-210.442 1143.96-210.023 1144.24ZM4.91553 1097.93C8.63086 1098.7 12.5168 1098.91 16.0487 1100.3 24.5637 1104.72 24.7795 1113.05 12.5518 1111.47 8.75134 1113.17 0.831665 1112.25-6.2627 1112.97-16.9722 1115.15-21.741 1115.5-29.8312 1121.41-35.6921 1124.95-40.9905 1127.99-41.7165 1127.81-43.8748 1132.05-64.389 1139.11-74.769 1146.86-75.4278 1148.06-77.4397 1148.27-79.7327 1150.19-86.706 1154.46-92.4052 1156.71-98.1171 1165.05-103.175 1172.66-104.839 1178.44-102.739 1181.21-101.102 1182.82-100.594 1183.69-98.4856 1185.64-98.5396 1185.66-98.5857 1185.64-98.622 1185.65-97.7187 1187.26-95.8138 1189.19-93.3882 1190.55-89.4397 1190.93-88.8367 1193.47-84.693 1193.91-79.628 1194.85-75.6727 1194.61-71.3987 1195.93-70.4209 1195.71-68.9692 1195.67-68.1732 1195.52-62.7444 1194.33-57.5119 1198.12-49.3339 1197.49-27.0312 1198.94-12.5198 1201.46-7.7312 1202.99-3.42419 1206.58-0.180908 1205.72 3.0354 1211.93 7.08899 1217.81 1.70947 1220.02 1.62622 1222.79-0.366577 1225.25-3.68176 1228.11-7.39429 1233.01-12.4614 1238.68-16.8328 1243.13-17.4355 1243.23-17.3464 1244.37-22.8068 1246.03-26.7124 1250.68-31.3691 1255.41-40.2549 1262.55-46.9018 1268.19-48.9057 1270.91-53.4756 1274.11-55.9716 1276.94-65.479 1283.9-130.229 1308.41-134.519 1302.88-139.924 1295.69-80.5674 1279.5-67.085 1262.83-48.3192 1248.08-18.4026 1217.84-19.4148 1216.25-20.5942 1214.16-37.5453 1210.73-71.318 1207.7-100.749 1206.5-108.884 1203.03-118.616 1192.37-122.401 1190.1-123.02 1187.32-126.96 1184.24-125.909 1178.65-128.088 1173.34-124.543 1166.14-121.082 1160.81-115.96 1155.24-109.446 1150.18-98.7918 1143.93-83.2003 1127.76-67.8563 1121.2-51.8029 1111.74-26.5416 1102.59-10.7521 1099.65-4.17468 1098.65-0.0184326 1097.13 4.91553 1097.93ZM147.017 1090.35C150.779 1090.51 152.286 1092.08 157.326 1093.11 157.752 1097.38 148.637 1113.9 145.222 1116.26 143.543 1117.64 137.009 1124.15 136.539 1134.07 135.891 1138.06 133.383 1141.98 132.298 1146.4 130.802 1149.26 129.264 1154.01 128.527 1156.26 128.287 1157.62 127.795 1158.94 127.75 1159.89 131.991 1157.73 140.168 1158.91 144.819 1158.22 151.526 1154.26 165.332 1156.71 173.559 1155.39 178.182 1154.69 194.201 1152.33 204.189 1152.87 215.557 1151.6 232.22 1152 241.393 1148.99 252.809 1145.3 270.739 1144.88 282.989 1143.56 296.221 1140.92 312.051 1139.68 318.748 1138.78 325.775 1137.72 335.172 1135.78 340.638 1136.15 346.047 1135.84 350.748 1134.95 351.588 1134.4 360.353 1125.47 384.254 1132.57 427.484 1124.32 459.98 1121.64 461.258 1121.7 462.533 1129.3 462.944 1131.86 463.054 1136.2 462.421 1137.89 461.571 1141.14 456.914 1143.47 435.92 1147.74 430.028 1148.89 422.346 1151.25 417.65 1152.17 402.766 1156.68 354.813 1164.06 345.963 1163.47 341.842 1163.67 335.828 1164.32 334 1164.62 330.889 1165.65 330.028 1165.73 330.073 1164.14 329.801 1161.14 348.115 1154.89 352.642 1154.09 358.33 1153.73 368.759 1149.45 367.724 1148.31 367.374 1148.73 362.778 1147.4 359.12 1148.93 355.507 1149.3 346.956 1151.79 338.238 1152.59 332.467 1153.68 320.665 1155.42 315.602 1156.52 309.578 1156.73 300.33 1156.88 290.934 1159.98 282.204 1160.67 274.832 1162.39 273.254 1163.83 267.722 1167.36 262.272 1184.38 258.769 1190.74 257.115 1195.07 255.252 1200.54 253.8 1203.06 246.529 1218.13 239.501 1244.1 238.678 1256.48 236.947 1266.69 243.587 1284 247.423 1289.67 256.743 1297.97 265.896 1291.1 277.096 1282.34 280.297 1279.38 284.779 1273.77 286.413 1271.82 293.52 1263.74 306.331 1247.39 313.624 1241 334.212 1216.22 337.32 1211.38 345.02 1213.29 350.147 1213.74 350.561 1214.09 350.917 1219.19 351.164 1222.02 350.018 1226.69 349.03 1229.8 343.547 1243.1 348.714 1248.79 364.684 1269.49 368.375 1274.12 371.985 1278.55 372.711 1279.65 375.86 1284.13 389.257 1292.65 395.096 1294.81 414.31 1300.61 435.7 1304.38 452.893 1298.33 464.323 1295.21 469.683 1294.81 470.404 1296.23 470.914 1296.98 470.313 1297.93 469.648 1298.4 468.818 1299.13 467.817 1300.76 466.53 1302.88 465.894 1304.53 462.945 1307.44 460.481 1308.63 458.427 1310.18 453.61 1311.37 450.802 1313.45 443.241 1316.6 419.639 1318.84 402.114 1315.29 391.378 1313.24 385.732 1312.24 380.641 1308.31 376.446 1305.68 372.758 1303.62 372.106 1303.68 369.386 1302.96 356.251 1292.26 352.545 1284.2 350.892 1281.66 345.36 1273.6 341.223 1269.77 335.317 1262.34 328.979 1252.81 328.992 1246.88 329.014 1245.66 328.11 1244.88 327.561 1244.82 326.649 1245.04 326.271 1245.39 326.086 1246.26 326.526 1248.86 321.644 1255.97 304.926 1271.19 302.448 1274.94 294.801 1281.71 292.363 1284.72 289.834 1287.55 287.705 1290.53 287.614 1291.36 288.133 1292.74 278.477 1303.4 272.564 1305.88 261.543 1314.24 245.788 1311.08 236.209 1300.45 229.083 1294.27 226.07 1283.59 222.212 1267.78 220.51 1257.84 222.625 1239.02 224.334 1239.1 225.137 1239.2 225.452 1238.22 225.68 1236.5 226.162 1233.65 231.723 1213.72 234.219 1207.47 237.86 1198.23 241.812 1187.44 242.416 1182.22 243.821 1175.6 245.582 1170.57 243.621 1168.11 241.151 1164.62 246.62 1165.05 230.958 1167.07 227.07 1169.48 201.998 1168.14 182.081 1172.26 166.692 1173.61 158.453 1170.49 138.76 1175.91 135.239 1175.52 129.353 1178.54 126.332 1179.25 121.318 1181.44 120.427 1182.83 118.001 1192.4 115.193 1199.25 112.762 1208.46 112.098 1220.44 109.177 1229.06 108.494 1241.88 106.904 1249.95 104.453 1262.95 104.177 1280.93 105.439 1284.03 106.326 1285.47 107.917 1285.73 111.546 1284.98 117.696 1283.48 132.074 1275.23 138.117 1269.74 142.132 1266.05 147.032 1264.39 146.602 1267.08 146.392 1267.2 145.248 1271.26 142.88 1273.15 140.998 1275.57 138.604 1279.84 136.786 1282.4 132.871 1288.74 125.973 1295.36 121.133 1298.36 110.281 1303.72 94.1812 1300.66 91.2249 1290.25 88.1472 1282.12 88.6871 1261.35 92.1213 1243.93 95.2522 1230.48 99.093 1212.08 99.3594 1202.94 101.52 1192.52 102.573 1183.73 104.454 1181 106.904 1178.14 104.857 1177.67 98.6517 1179.03 94.6674 1176.89 66.7888 1179.34 45.8569 1179.7 26.4478 1177.2 57.799 1166.67 68.5532 1163.2 88.8781 1162.99 109.113 1161.05 110.279 1158.93 110.813 1157.48 112.406 1152.95 114.064 1148.05 115.266 1143.07 117.154 1138.54 118.134 1137.62 119.195 1136.84 120.248 1133.85 120.696 1131.09 123.044 1121.63 133.851 1093.35 135.487 1091.95 136.23 1091.12 141.588 1089.58 147.017 1090.35ZM-185.113 1035.6C-184.036 1036.25-183.08 1037.4-182.067 1037.99-178.196 1041.8-176.682 1047.57-180.808 1053.16-182.274 1054.47-182.963 1057.81-183.073 1059.25-183.502 1061.27-184.138 1063.14-185.47 1064.32-191.557 1069.9-196.736 1086.92-190.857 1097.47-189.104 1101.13-188.249 1104.59-188.048 1105.52-188.064 1106.45-186.325 1109.61-184.475 1110.81-182.26 1113.43-181.109 1115.62-181.229 1118.87-181.705 1122.92-182.058 1123.16-187.547 1122.87-192.284 1121.99-194.493 1121.75-198.682 1116.45-203.022 1112.33-205.206 1107.4-207.306 1096.24-211.353 1078.73-210.784 1074.87-208.674 1067.22-207.242 1064.8-206.239 1060.85-206.389 1059.53-206.951 1055.72-199.186 1042.4-196.239 1041.01-194.935 1040.19-192.278 1039.38-190.681 1039.34-188.719 1039.28-186.993 1038.34-186.571 1037.06-186.299 1035.93-185.732 1035.53-185.113 1035.6ZM-324.503 914.486C-323.277 914.605-322.855 914.755-322.039 915.501-320.748 916.188-319.094 917.649-317.4 917.31-315.689 917.663-313.205 918.263-312.177 918.98-310.694 920.233-311.29 920.337-315.246 919.669-319.098 919.369-320.906 919.192-322.991 921.462-324.432 922.938-327.042 924.233-329.145 924.15-331.484 923.828-333.509 925.043-334.564 926.264-335.798 927.452-338.537 928.916-342.908 929.215-356.795 931.815-380.207 937.442-385.158 940.174-387.11 942.642-406.016 949.953-423.364 953.807-441.514 959.203-459.963 966.262-463.761 967.849-468.362 969.142-475.553 972.267-480.458 974.478-494.461 979.65-513.984 987.351-517.082 989.736-518.123 990.826-522.898 992.662-528.074 994.692-532.97 996.605-537.583 998.63-538.187 999.222-539.084 999.74-540.987 1000.12-542.427 1000.33-543.91 1000.12-547.442 1001.13-549.009 1002.29-555.784 1005.73-575.474 1014.29-576.414 1014.46-577.352 1014.74-582.68 1018.17-589.173 1020.85-595.609 1024.43-601.507 1027.26-602.953 1027.22-604.509 1026.94-606.952 1028.4-611.885 1030.61-615.814 1032.34-625.203 1037.01-632.117 1040.25-640.203 1043.56-648.647 1049.47-652.07 1050.77-655.653 1053.29-661.05 1056.35-663.817 1057.76-665.649 1059.86-675.384 1064.29-683.216 1070.47-690.51 1076.14-695.169 1077.75-702.186 1083.92-710.219 1088.9-709.844 1091.03-704.354 1093.65-701.454 1094.75-698.211 1096.14-696.661 1095.94-694.318 1095.85-690.5 1096.17-686.792 1098.83-678.903 1100.28-660.594 1105.12-617.826 1117.36-607.652 1118.05-580.857 1119.57-557.475 1126.17-543.012 1127.78-519.162 1130.85-516.188 1133.12-514.354 1133.84-509.516 1134.56-503.69 1135.61-486.829 1137.73-471.904 1137.56-453.546 1145.01-444.739 1146.73-428.508 1149.03-419.534 1151.28-409.836 1153-401.322 1154.57-399.913 1155.03-399.428 1156.64-391.048 1160-381.925 1161.1-374.239 1163.34-361.278 1168.62-357.559 1169.57-353.459 1170.47-351.107 1173.09-349.012 1173.33-344.739 1176.46-342.115 1176.54-339.758 1183.51-336.712 1189.62-339.669 1193.53-340.01 1198.07-347.751 1211.68-356.121 1226.43-368.849 1230.77-375.526 1235.93-388.094 1243.79-394.72 1248.2-396.871 1249.09-402.105 1252.32-404.409 1253.76-406.209 1254.13-413.789 1260.14-420.839 1262.29-426.367 1265.42-433.736 1268.47-436.099 1270.54-438.819 1271.93-443.314 1274.29-445.642 1276.1-455.183 1283.09-476.092 1296.65-477.241 1296.96-477.48 1296.74-483.455 1300.48-488.561 1304.68-493.394 1308.14-501.832 1313.56-504.726 1315.25-508.257 1316.47-513.246 1320.16-515.304 1321.96-518.308 1323.95-523.021 1327.18-526.461 1328.37-529.764 1329.78-534.115 1331.9-535.415 1333.5-535.401 1336.2-542.295 1337.59-547.604 1340.77-548.62 1341.94-550.7 1341.56-552.812 1343.36-552.879 1343.76-552.822 1344.17-552.771 1344.52-556.105 1346.82-559.653 1347.4-561.701 1348.37-563.552 1349.94-566.248 1350.17-569.864 1351.85-573.745 1354.6-579.322 1355.83-583.296 1358.53-583.997 1358.88-584.849 1359.15-585.398 1359.53-585.684 1359.63-585.88 1359.51-586.332 1359.52-587.035 1359.98-587.59 1359.98-588.105 1360.37-594.896 1365.55-607.811 1368.01-616.803 1373.47-644.676 1385.43-665.709 1392.4-673.557 1397.18-685.019 1402.13-722.935 1416.24-726.96 1416.68-727.733 1416.19-734.77 1417.66-739.765 1421.5-744.653 1424.13-750.648 1425.94-752.571 1426.32-754.37 1426.13-762.059 1427.58-767.295 1430.48-773.323 1432.77-779.257 1434.38-780.272 1434.58-781.295 1434.44-785.121 1436.04-788.324 1437.77-807.893 1448.44-838.162 1455.83-869.526 1466.85-878.396 1469.67-886.896 1472.36-888.401 1473.19-898.771 1474.25-925.857 1481.97-956.762 1490.16-967.217 1494.74-974.96 1490.08-985.313 1494.95-993.863 1496.27-1003.46 1498.22-1005.77 1497.85-1011.12 1497.39-1033.13 1491.2-1035.23 1488.96-1035.65 1487.38-1037.76 1483.26-1037.33 1478.83-1037.57 1471.18-1037.39 1470.79-1028.91 1461.19-1019.35 1450.21-1012.32 1444.49-1011.22 1446.14-1010.62 1446.29-1011.03 1447.56-1012.72 1448.96-1014.65 1450.79-1015.62 1454.63-1017.04 1458.88-1019.04 1468.58-1017.82 1473.48-1009.73 1476.26-1004.67 1478.07-1002.54 1477.66-986.416 1475.89-976.597 1474.13-961.464 1473.99-954.557 1469.82-948.015 1467.8-931.948 1465.19-926.348 1463.59-913.484 1461.96-885.115 1451.54-868.662 1445.68-863.981 1443.71-858.966 1441.86-856.439 1440.88-853.942 1439.96-849.617 1437.66-845.641 1437.01-831.856 1431.03-812.497 1425.05-800.286 1420.84-794.472 1418.43-785.478 1415.98-778.68 1413.38-773.141 1411.78-765.119 1408.57-762.113 1407.7-759.414 1406.99-754.985 1405.11-752.013 1404.73-749.18 1403.95-745.117 1401.94-741.21 1401-738.966 1400.89-730.002 1396.58-718.174 1392.76-709.129 1389.52-700.75 1386.95-698.856 1386.54-698.496 1387.19-690.72 1385.42-682.753 1380.15-675.043 1376.62-667.825 1373.67-666.357 1373.75-662.765 1373.24-657.266 1370.81-651.569 1367.25-644.685 1363.52-637.039 1359.51-633.353 1358.74-630.445 1357.64-622.344 1355.44-618.971 1353.14-608.614 1349-593.564 1342.32-588.797 1340.57-586.175 1339.76-581.244 1337.54-578.044 1335.38-574.325 1333.58-569.013 1331.38-567.292 1330.2-565.975 1329.14-564.14 1329.02-563.118 1328.27-557.788 1322.75-545.115 1319.67-537.947 1315.39-529.993 1311.28-513.168 1302.98-504.022 1294.86-491.712 1287.42-480.346 1279.86-476.991 1277.87-439.441 1258.36-411.186 1239.12-402.197 1229.46-396.828 1227.07-384.627 1217.96-377.34 1211.57-372.021 1204.35-363.987 1195.47-367.294 1189.61-369.727 1181.11-384.905 1177.51-395.912 1172.13-396.213 1172.36-409.538 1167.61-421.766 1165.97-431.825 1162.06-451.743 1159.29-460.99 1157.15-468.79 1156.84-482.763 1151.79-490.05 1151.09-497.281 1148.7-507.627 1148.1-511.126 1147.17-515.608 1145.17-523.982 1145.81-529.297 1144.02-547.277 1142.46-583.896 1128.8-619.444 1129.73-629.664 1128.55-641.325 1127.21-644.162 1125.76-646.748 1125.07-650.729 1123.71-652.883 1124.19-654.716 1123.96-658.252 1123.52-660.286 1122.06-664.127 1120.02-666.921 1119.3-691.647 1113.63-698.296 1112.71-707.865 1109.58-712.246 1106.66-716.822 1104.44-721.129 1103.29-722.978 1102.88-728.294 1103.01-730.42 1100.53-729.723 1094.92-728.801 1089.59-722.65 1083.25-693.304 1062.03-687.916 1057.16-680.67 1053.14-678.6 1051.73-671.476 1045.13-637.752 1029.35-623.863 1021.85-615.413 1021.12-600.476 1010.68-588.67 1004.68-570.557 995.009-559.089 989.275-536.661 982.779-528.311 979.647-504.418 967.996-492.565 964.413-489.197 963.032-485.845 961.852-485.1 961.742-483.363 962.116-479.38 960.397-474.117 957.516-469.014 955.138-463.83 953.123-462.551 953.295-462.772 953.403-453.541 951.71-448.927 947.645-442.69 944.614-436.485 941.661-435.158 941.997-435.48 940.271-422.246 939.075-410.734 935.031-373.053 924.347-358.617 921.902-347.135 918.233-340.61 917.327-331.839 916.831-329.177 915.408-327.349 914.727-325.439 914.37-324.503 914.486Z" stroke="#000000" stroke-width="9.16667" stroke-linecap="round" stroke-linejoin="round" stroke-miterlimit="10" fill="none" fill-rule="evenodd"/></g></svg>